<svg width="47" height="48" viewBox="0 0 47 48" fill="none" xmlns="http://www.w3.org/2000/svg">
<mask id="mask0_736_389" style="mask-type:alpha" maskUnits="userSpaceOnUse" x="0" y="0" width="47" height="48">
<rect y="0.979492" width="47" height="47" fill="#D9D9D9"/>
</mask>
<g mask="url(#mask0_736_389)">
<path d="M2.6559 34.7574C1.7182 34.7574 0.915477 34.4251 0.247724 33.7603C-0.42003 33.0956 -0.753906 32.2965 -0.753906 31.363V10.9963C-0.753906 10.0628 -0.42003 9.26374 0.247724 8.599C0.915477 7.93425 1.7182 7.60188 2.6559 7.60188H8.02634L11.1804 4.20743H21.4098V7.60188H12.6722L9.56075 10.9963H2.6559V31.363H29.9343V16.088H33.3441V31.363C33.3441 32.2965 33.0103 33.0956 32.3425 33.7603C31.6748 34.4251 30.872 34.7574 29.9343 34.7574H2.6559ZM29.9343 10.9963V7.60188H26.5245V4.20743H29.9343V0.812988H33.3441V4.20743H36.7539V7.60188H33.3441V10.9963H29.9343ZM16.2951 28.8172C18.4262 28.8172 20.2377 28.0746 21.7295 26.5896C23.2213 25.1045 23.9672 23.3012 23.9672 21.1797C23.9672 19.0581 23.2213 17.2548 21.7295 15.7698C20.2377 14.2847 18.4262 13.5422 16.2951 13.5422C14.164 13.5422 12.3525 14.2847 10.8607 15.7698C9.36895 17.2548 8.62305 19.0581 8.62305 21.1797C8.62305 23.3012 9.36895 25.1045 10.8607 26.5896C12.3525 28.0746 14.164 28.8172 16.2951 28.8172ZM16.2951 25.4227C15.1017 25.4227 14.0929 25.0126 13.2689 24.1922C12.4449 23.3719 12.0329 22.3677 12.0329 21.1797C12.0329 19.9916 12.4449 18.9874 13.2689 18.1671C14.0929 17.3468 15.1017 16.9366 16.2951 16.9366C17.4885 16.9366 18.4973 17.3468 19.3213 18.1671C20.1454 18.9874 20.5574 19.9916 20.5574 21.1797C20.5574 22.3677 20.1454 23.3719 19.3213 24.1922C18.4973 25.0126 17.4885 25.4227 16.2951 25.4227Z" fill="#1C1B1F"/>
</g>
</svg>
